# xmcd
#
# Track frame offsets: 
#        150
#        11251
#        25162
#        35543
#        49328
#        60230
#        71880
#        82653
#        94398
#        103203
#        115689
#        125162
#        136936
#        148697
#        159996
#        170970
#        186823
#        202682
#
# Disc length: 2903 seconds
#
# Revision: 0
# Processed by: cddbd v1.5.1PL0 Copyright (c) Steve Scherf et al.
# Submitted via: ExactAudioCopy v0.95b2
#
DISCID=f50b5512
DTITLE=Various Artist - Queens of the Blues
DYEAR=2000
DGENRE=Blues
TTITLE0=Memphis Minnie - Kissing in the Dark
TTITLE1=Grace Brim - Man Around My Door
TTITLE2=Big Mama Thorrton and the Harlem Stars - All Right Baby
TTITLE3=Memphis Minnie - World of Trouble
TTITLE4=Grace Brim - Hospitality Blubs
TTITLE5=Odetta - Midnight Special
TTITLE6=Betty Everett - Killer Diller
TTITLE7=Lillian Offitt - Will My Man Be Home Tonight
TTITLE8=Betty Everett - Ain't Gonna Cry
TTITLE9=Lillian Offitt - Oh Mana
TTITLE10=Koko Taylor - Honky Tonky
TTITLE11=Dorothy Prince - If I Could Live My Life
TTITLE12=Koko Taylor - Like Heaven to Me
TTITLE13=Betty Harris - Bad Luck
TTITLE14=Barbara West - You're No Good
TTITLE15=Fontella Bass - Home Wrecker
TTITLE16=Tommie Young - You Can't Have Your Cake (And Eat It Too)
TTITLE17=Ike and Tina Turnner - Crazy About You Baby
EXTD=
EXTT0=
EXTT1=
EXTT2=
EXTT3=
EXTT4=
EXTT5=
EXTT6=
EXTT7=
EXTT8=
EXTT9=
EXTT10=
EXTT11=
EXTT12=
EXTT13=
EXTT14=
EXTT15=
EXTT16=
EXTT17=
PLAYORDER=
